<?xml version="1.0" standalone="no"?>
<!DOCTYPE svg PUBLIC "-//W3C//DTD SVG 20010904//EN"
 "http://www.w3.org/TR/2001/REC-SVG-20010904/DTD/svg10.dtd">
<svg version="1.0" xmlns="http://www.w3.org/2000/svg"
 width="230.000000pt" height="230.000000pt" viewBox="0 0 230.000000 230.000000"
 preserveAspectRatio="xMidYMid meet">
<metadata>
Created by potrace 1.11, written by Peter Selinger 2001-2013
</metadata>
<g transform="translate(0.000000,230.000000) scale(0.100000,-0.100000)"
fill="#000000" stroke="none">
<path d="M1010 2283 c-327 -48 -593 -203 -783 -456 -156 -208 -230 -445 -223
-712 2 -71 7 -141 10 -155 45 -199 93 -318 180 -448 165 -246 404 -412 698
-483 143 -35 387 -33 528 5 270 72 480 213 646 434 103 136 189 342 211 501
10 73 10 293 1 350 -72 426 -367 776 -768 911 -77 26 -82 27 -183 44 -72 12
-259 18 -317 9z m298 -137 c68 -10 187 -48 259 -81 277 -128 483 -376 560
-674 26 -103 38 -291 23 -373 -5 -24 -11 -60 -14 -82 -29 -181 -175 -431 -326
-554 -43 -35 -44 -35 -27 -9 56 87 97 256 92 381 -4 101 -10 133 -40 219 -136
393 -580 594 -966 437 -168 -68 -308 -201 -385 -365 -98 -211 -92 -464 14
-655 l25 -45 -52 44 c-114 95 -233 275 -285 431 -52 157 -67 365 -37 517 83
419 440 759 851 809 25 3 46 7 48 9 5 4 221 -3 260 -9z m6 -837 c117 -32 259
-137 330 -244 41 -60 84 -166 93 -229 11 -71 6 -189 -12 -256 -17 -65 -73
-181 -102 -210 -13 -13 -14 -10 -8 29 47 292 -174 554 -470 554 -226 1 -424
-161 -471 -385 -7 -35 -6 -152 2 -183 20 -82 -77 79 -108 178 -20 64 -28 207
-15 277 21 116 80 224 171 315 158 157 371 213 590 154z m-56 -506 c89 -30
159 -93 200 -181 23 -48 27 -71 27 -142 0 -47 -4 -94 -8 -105 -7 -17 -12 -10
-27 38 -28 91 -80 151 -167 193 -174 86 -385 -7 -443 -193 -17 -54 -19 -56
-28 -33 -5 14 -9 61 -8 105 1 64 6 91 28 137 76 163 255 239 426 181z m-14
-323 c113 -68 115 -241 3 -316 -111 -73 -262 -8 -287 124 -15 83 46 188 123
211 46 15 118 6 161 -19z"/>
</g>
</svg>
